<svg xmlns="http://www.w3.org/2000/svg" version="1.1" xmlns:xlink="http://www.w3.org/1999/xlink" xmlns:svgjs="http://svgjs.dev/svgjs" width="1500" height="208" viewBox="0 0 1500 208"><g transform="matrix(1,0,0,1,-0.9090909090909918,-0.29684596144940656)"><svg viewBox="0 0 396 55" data-background-color="#ffffff" preserveAspectRatio="xMidYMid meet" height="208" width="1500" xmlns="http://www.w3.org/2000/svg" xmlns:xlink="http://www.w3.org/1999/xlink"><g id="tight-bounds" transform="matrix(1,0,0,1,0.2400000000000091,0.07849292249863993)"><svg viewBox="0 0 395.52 54.84301415500272" height="54.84301415500272" width="395.52"><g><svg viewBox="0 0 472.1763149985763 65.47221967820576" height="54.84301415500272" width="395.52"><g transform="matrix(1,0,0,1,0,9.048620809361292)"><svg viewBox="0 0 395.52 47.374978059483176" height="47.374978059483176" width="395.52"><g id="textblocktransform"><svg viewBox="0 0 395.52 47.374978059483176" height="47.374978059483176" width="395.52" id="textblock"><g><svg viewBox="0 0 395.52 47.374978059483176" height="47.374978059483176" width="395.52"><g transform="matrix(1,0,0,1,0,0)"><svg width="395.52" viewBox="2.25 -36.25 307.63 36.85" height="47.374978059483176" data-palette-color="#000000"><path d="M20.1-35Q27.75-35 32.2-31.18 36.65-27.35 36.65-20.25L36.65-20.25 26.1-20.25Q26.1-23.25 24.53-25 22.95-26.75 20.05-26.75L20.05-26.75Q16.7-26.75 15.13-24.65 13.55-22.55 13.55-18.8L13.55-18.8 13.55-15.6Q13.55-11.9 15.13-9.78 16.7-7.65 19.95-7.65L19.95-7.65Q23.15-7.65 24.8-9.3 26.45-10.95 26.45-13.95L26.45-13.95 36.65-13.95Q36.65-6.9 32.33-3.15 28 0.6 20.1 0.6L20.1 0.6Q11.3 0.6 6.78-3.9 2.25-8.4 2.25-17.2L2.25-17.2Q2.25-26 6.78-30.5 11.3-35 20.1-35L20.1-35ZM55.55-27Q62.5-27 66.47-23.48 70.45-19.95 70.45-13.2L70.45-13.2Q70.45-6.45 66.47-2.93 62.5 0.6 55.55 0.6L55.55 0.6Q48.6 0.6 44.65-2.9 40.7-6.4 40.7-13.2L40.7-13.2Q40.7-20 44.65-23.5 48.6-27 55.55-27L55.55-27ZM55.55-20.25Q50.65-20.25 50.65-14.6L50.65-14.6 50.65-11.75Q50.65-6.15 55.55-6.15L55.55-6.15Q60.5-6.15 60.5-11.75L60.5-11.75 60.5-14.6Q60.5-20.25 55.55-20.25L55.55-20.25ZM102.55 0L94.45 0 93.59-3.75Q90.7 0.6 85.2 0.6L85.2 0.6Q79.84 0.6 76.95-2.9 74.05-6.4 74.05-13.25L74.05-13.25Q74.05-20.05 76.95-23.53 79.84-27 85.2-27L85.2-27Q89.75-27 92.59-23.95L92.59-23.95 92.59-36.25 102.55-36.25 102.55 0ZM88.3-19.65Q84-19.65 84-14.5L84-14.5 84-11.85Q84-6.75 88.3-6.75L88.3-6.75Q90.5-6.75 91.59-8.3 92.7-9.85 92.7-12.35L92.7-12.35 92.7-14Q92.7-16.5 91.59-18.07 90.5-19.65 88.3-19.65L88.3-19.65ZM122.24-27Q129.49-27 133.32-23.6 137.14-20.2 137.14-13.2L137.14-13.2 137.14-11.5 117.34-11.5Q117.34-8.65 118.62-7.2 119.89-5.75 122.64-5.75L122.64-5.75Q125.14-5.75 126.32-6.8 127.49-7.85 127.49-9.6L127.49-9.6 137.14-9.6Q137.14-4.8 133.49-2.1 129.84 0.6 122.84 0.6L122.84 0.6Q115.49 0.6 111.44-2.83 107.39-6.25 107.39-13.2L107.39-13.2Q107.39-20 111.34-23.5 115.29-27 122.24-27L122.24-27ZM122.64-20.65Q117.94-20.65 117.39-16.2L117.39-16.2 127.09-16.2Q127.09-18.25 125.92-19.45 124.74-20.65 122.64-20.65L122.64-20.65ZM159.04-35Q166.69-35 171.14-31.18 175.59-27.35 175.59-20.25L175.59-20.25 165.04-20.25Q165.04-23.25 163.47-25 161.89-26.75 158.99-26.75L158.99-26.75Q155.64-26.75 154.06-24.65 152.49-22.55 152.49-18.8L152.49-18.8 152.49-15.6Q152.49-11.9 154.06-9.78 155.64-7.65 158.89-7.65L158.89-7.65Q162.09-7.65 163.74-9.3 165.39-10.95 165.39-13.95L165.39-13.95 175.59-13.95Q175.59-6.9 171.26-3.15 166.94 0.6 159.04 0.6L159.04 0.6Q150.24 0.6 145.72-3.9 141.19-8.4 141.19-17.2L141.19-17.2Q141.19-26 145.72-30.5 150.24-35 159.04-35L159.04-35ZM194.49-27Q201.44-27 205.41-23.48 209.39-19.95 209.39-13.2L209.39-13.2Q209.39-6.45 205.41-2.93 201.44 0.6 194.49 0.6L194.49 0.6Q187.54 0.6 183.59-2.9 179.64-6.4 179.64-13.2L179.64-13.2Q179.64-20 183.59-23.5 187.54-27 194.49-27L194.49-27ZM194.49-20.25Q189.59-20.25 189.59-14.6L189.59-14.6 189.59-11.75Q189.59-6.15 194.49-6.15L194.49-6.15Q199.44-6.15 199.44-11.75L199.44-11.75 199.44-14.6Q199.44-20.25 194.49-20.25L194.49-20.25ZM224.49 0L214.53 0 214.53-36.25 224.49-36.25 224.49 0ZM241.13 0L231.18 0 231.18-36.25 241.13-36.25 241.13 0ZM260.53-27Q266.58-27 270.38-24.98 274.18-22.95 274.18-18.4L274.18-18.4 274.18-8.1Q274.18-7.25 274.58-6.7 274.98-6.15 275.78-6.15L275.78-6.15 277.58-6.15 277.58-0.4Q277.43-0.3 276.81-0.08 276.18 0.15 275.03 0.38 273.88 0.6 272.38 0.6L272.38 0.6Q269.48 0.6 267.61-0.28 265.73-1.15 265.03-2.7L265.03-2.7Q263.13-1.2 260.78-0.3 258.43 0.6 255.28 0.6L255.28 0.6Q245.98 0.6 245.98-6.8L245.98-6.8Q245.98-10.65 248.06-12.68 250.13-14.7 254.03-15.45 257.93-16.2 264.23-16.2L264.23-16.2 264.23-17.5Q264.23-19.05 263.16-19.85 262.08-20.65 260.38-20.65L260.38-20.65Q258.83-20.65 257.71-20.1 256.58-19.55 256.58-18.35L256.58-18.35 256.58-18.15 246.78-18.15Q246.73-18.4 246.73-18.85L246.73-18.85Q246.73-22.6 250.31-24.8 253.88-27 260.53-27L260.53-27ZM264.23-11.5Q259.98-11.5 257.96-10.58 255.93-9.65 255.93-8.1L255.93-8.1Q255.93-5.6 259.33-5.6L259.33-5.6Q261.28-5.6 262.75-6.65 264.23-7.7 264.23-9.25L264.23-9.25 264.23-11.5ZM291.33-23.95Q294.18-27 298.73-27L298.73-27Q304.08-27 306.98-23.53 309.88-20.05 309.88-13.25L309.88-13.25Q309.88-6.4 306.98-2.9 304.08 0.6 298.73 0.6L298.73 0.6Q293.23 0.6 290.33-3.75L290.33-3.75 289.48 0 281.38 0 281.38-36.25 291.33-36.25 291.33-23.95ZM295.63-19.65Q293.43-19.65 292.33-18.07 291.23-16.5 291.23-14L291.23-14 291.23-12.35Q291.23-9.85 292.33-8.3 293.43-6.75 295.63-6.75L295.63-6.75Q299.93-6.75 299.93-11.85L299.93-11.85 299.93-14.5Q299.93-19.65 295.63-19.65L295.63-19.65Z" opacity="1" transform="matrix(1,0,0,1,0,0)" fill="#000000" class="wordmark-text-0" data-fill-palette-color="primary" id="text-0"></path></svg></g></svg></g></svg></g></svg></g><g transform="matrix(1,0,0,1,406.7040953203705,0)"><svg viewBox="0 0 65.47221967820576 65.47221967820576" height="65.47221967820576" width="65.47221967820576"><g data-palette-color="#e11414"><rect width="17.89574004537624" height="65.47221967820576" fill="#e11414" stroke="transparent" data-fill-palette-color="accent" x="0" fill-opacity="1"></rect><rect width="17.89574004537624" height="65.47221967820576" fill="#e11414" stroke="transparent" data-fill-palette-color="accent" x="21.824073226068585" fill-opacity="0.75"></rect><rect width="17.89574004537624" height="65.47221967820576" fill="#e11414" stroke="transparent" data-fill-palette-color="accent" x="43.64814645213717" fill-opacity="0.5"></rect></g></svg></g></svg></g><defs></defs></svg><rect width="395.52" height="54.84301415500272" fill="none" stroke="none" visibility="hidden"></rect></g></svg></g></svg>